# xmcd
#
# Track frame offsets:
#	150
#	13724
#	31220
#	49107
#	66482
#	83321
#	103233
#	116879
#	132224
#	146570
#	163815
#	183735
#
# Disc length: 2631 seconds
#
# Revision: 1
# Processed by: cddbd v1.5.2PL0 Copyright (c) Steve Scherf et al.
# Submitted via: audiograbber 1.83.01
#
DISCID=a90a450c
DTITLE=JonesTM - HC200804
DYEAR=2008
DGENRE=Country
TTITLE0=Correna Ann - What Do You Bet
TTITLE1=Jewel - Stronger Woman [Radio Edit]
TTITLE2=Randy Owen - Braid My Hair [Radio Edit]
TTITLE3=Bellamy Brothers - Drug Problem [Radio Edit]
TTITLE4=Dierks Bentley - Trying To Stop Your Leaving
TTITLE5=Alice Smith - Dream
TTITLE6=R. Kelly - Real Talk [Clean]
TTITLE7=Cheri Dennis - Portrait Of Love [No Rap]
TTITLE8=Danny Lerman - No Ordinary Love [Radio Edit]
TTITLE9=Jeff Oster - Serengeti [Radio Edit]
TTITLE10=Kenny G - Sax-o-loco [Radio Edit]
TTITLE11=Carol Duboc - My Valentine [Single]
EXTD=
EXTT0=
EXTT1=
EXTT2=
EXTT3=
EXTT4=
EXTT5=
EXTT6=
EXTT7=
EXTT8=
EXTT9=
EXTT10=
EXTT11=
PLAYORDER=
